<svg xmlns="http://www.w3.org/2000/svg" version="1.1" xmlns:xlink="http://www.w3.org/1999/xlink" xmlns:svgjs="http://svgjs.dev/svgjs" width="1000" height="1000" viewBox="0 0 1000 1000"><rect width="1000" height="1000" fill="#ffffff"></rect><g transform="matrix(0.7,0,0,0.7,149.57575836881472,282.1265587044535)"><svg viewBox="0 0 396 247" data-background-color="#ffffff" preserveAspectRatio="xMidYMid meet" height="623" width="1000" xmlns="http://www.w3.org/2000/svg" xmlns:xlink="http://www.w3.org/1999/xlink"><g id="tight-bounds" transform="matrix(1,0,0,1,0.24000044864374104,-0.09999999999999432)"><svg viewBox="0 0 395.52 247.2" height="247.2" width="395.52"><g><svg></svg></g><g><svg viewBox="0 0 395.52 247.2" height="247.2" width="395.52"><g><path xmlns="http://www.w3.org/2000/svg" d="M55.039 247.2l34.489-59.737 216.464 0 34.489 59.737zM197.76 0l34.489 59.737-68.978 0z" fill="#1ebbd7" fill-rule="nonzero" stroke="none" stroke-width="1" stroke-linecap="butt" stroke-linejoin="miter" stroke-miterlimit="10" stroke-dasharray="" stroke-dashoffset="0" font-family="none" font-weight="none" font-size="none" text-anchor="none" style="mix-blend-mode: normal" data-fill-palette-color="tertiary"></path></g><g transform="matrix(1,0,0,1,2.842170943040401e-14,77.98355721765145)"><svg viewBox="0 0 395.5199999999999 91.23288556469709" height="91.23288556469709" width="395.5199999999999"><g><svg viewBox="0 0 395.5199999999999 91.23288556469709" height="91.23288556469709" width="395.5199999999999"><g><svg viewBox="0 0 395.5199999999999 91.23288556469709" height="91.23288556469709" width="395.5199999999999"><g><svg viewBox="0 0 395.5199999999999 91.23288556469709" height="91.23288556469709" width="395.5199999999999"><g><svg viewBox="0 0 395.5199999999999 91.23288556469709" height="91.23288556469709" width="395.5199999999999"><g transform="matrix(1,0,0,1,0,0)"><svg width="395.5199999999999" viewBox="1.7000007629394531 -35.20000457763672 336.3000183105469 74.10000610351562" height="91.23288556469709" data-palette-color="#3d9970"><svg></svg><svg></svg><g class="undefined-text-0" data-fill-palette-color="primary" id="text-0"><path xmlns="http://www.w3.org/2000/svg" d="M27.2 0l-2.5-7.1h-14.55l-2.5 7.1h-5.95l12.45-34.8h6.6l12.45 34.8zM11.75-11.75h11.35l-5.65-16.15zM36.8-34.75h24.25v4.65h-9.25v30.1h-5.7v-30.1h-9.3zM86-30.15h-13.5v10.2h12v4.65h-12v10.65h13.5v4.65h-19.2v-34.8h19.2zM104.45 0.35c-2.333 0-4.433-0.41-6.3-1.23-1.867-0.813-3.333-1.97-4.4-3.47-1.067-1.5-1.6-3.25-1.6-5.25v0h6.1c0.133 1.5 0.727 2.733 1.78 3.7 1.047 0.967 2.52 1.45 4.42 1.45v0c1.967 0 3.5-0.477 4.6-1.43 1.1-0.947 1.65-2.17 1.65-3.67v0c0-1.167-0.343-2.117-1.03-2.85-0.68-0.733-1.527-1.3-2.54-1.7-1.02-0.4-2.43-0.833-4.23-1.3v0c-2.267-0.6-4.107-1.21-5.52-1.83-1.42-0.613-2.63-1.57-3.63-2.87-1-1.3-1.5-3.033-1.5-5.2v0c0-2 0.5-3.75 1.5-5.25 1-1.5 2.4-2.65 4.2-3.45 1.8-0.8 3.883-1.2 6.25-1.2v0c3.367 0 6.123 0.84 8.27 2.52 2.153 1.687 3.347 3.997 3.58 6.93v0h-6.3c-0.1-1.267-0.7-2.35-1.8-3.25-1.1-0.9-2.55-1.35-4.35-1.35v0c-1.633 0-2.967 0.417-4 1.25-1.033 0.833-1.55 2.033-1.55 3.6v0c0 1.067 0.327 1.94 0.98 2.62 0.647 0.687 1.47 1.23 2.47 1.63 1 0.4 2.367 0.833 4.1 1.3v0c2.3 0.633 4.173 1.267 5.62 1.9 1.453 0.633 2.687 1.607 3.7 2.92 1.02 1.32 1.53 3.08 1.53 5.28v0c0 1.767-0.473 3.433-1.42 5-0.953 1.567-2.337 2.827-4.15 3.78-1.82 0.947-3.963 1.42-6.43 1.42zM121.4-34.75h24.25v4.65h-9.25v30.1h-5.7v-30.1h-9.3zM174.85 0l-2.5-7.1h-14.55l-2.5 7.1h-5.95l12.45-34.8h6.6l12.45 34.8zM159.4-11.75h11.35l-5.65-16.15zM184.45-34.75h24.25v4.65h-9.25v30.1h-5.7v-30.1h-9.3zM233.65-30.15h-13.5v10.2h12v4.65h-12v10.65h13.5v4.65h-19.2v-34.8h19.2z" fill="#000000" fill-rule="nonzero" stroke="none" stroke-width="1" stroke-linecap="butt" stroke-linejoin="miter" stroke-miterlimit="10" stroke-dasharray="" stroke-dashoffset="0" font-family="none" font-weight="none" font-size="none" text-anchor="none" style="mix-blend-mode: normal" data-fill-palette-color="primary" opacity="1"></path><path xmlns="http://www.w3.org/2000/svg" d="M3.75 3.8h5.7v34.75h-5.7zM45.5 3.75v34.8h-5.7l-17.15-25.95v25.95h-5.7v-34.8h5.7l17.15 25.9v-25.9zM53 3.8h20.45v4.65h-14.75v10.25h11.5v4.65h-11.5v15.2h-5.7zM94.6 38.9c-3.233 0-6.21-0.76-8.93-2.28-2.713-1.513-4.863-3.63-6.45-6.35-1.58-2.713-2.37-5.77-2.37-9.17v0c0-3.4 0.79-6.45 2.37-9.15 1.587-2.7 3.737-4.81 6.45-6.33 2.72-1.513 5.697-2.27 8.93-2.27v0c3.267 0 6.26 0.757 8.98 2.27 2.713 1.52 4.853 3.63 6.42 6.33 1.567 2.7 2.35 5.75 2.35 9.15v0c0 3.4-0.783 6.457-2.35 9.17-1.567 2.72-3.707 4.837-6.42 6.35-2.72 1.52-5.713 2.28-8.98 2.28zM94.6 33.95c2.3 0 4.35-0.527 6.15-1.58 1.8-1.047 3.207-2.547 4.22-4.5 1.02-1.947 1.53-4.203 1.53-6.77v0c0-2.567-0.51-4.817-1.53-6.75-1.013-1.933-2.42-3.417-4.22-4.45-1.8-1.033-3.85-1.55-6.15-1.55v0c-2.3 0-4.35 0.517-6.15 1.55-1.8 1.033-3.21 2.517-4.23 4.45-1.013 1.933-1.52 4.183-1.52 6.75v0c0 2.567 0.507 4.823 1.52 6.77 1.02 1.953 2.43 3.453 4.23 4.5 1.8 1.053 3.85 1.58 6.15 1.58zM142.8 38.55h-6.8l-8-13.9h-4.35v13.9h-5.7v-34.75h12c2.667 0 4.923 0.467 6.77 1.4 1.853 0.933 3.24 2.183 4.16 3.75 0.913 1.567 1.37 3.317 1.37 5.25v0c0 2.267-0.657 4.323-1.97 6.17-1.32 1.853-3.347 3.113-6.08 3.78v0zM123.65 8.45v11.65h6.3c2.133 0 3.743-0.533 4.83-1.6 1.08-1.067 1.62-2.5 1.62-4.3v0c0-1.8-0.533-3.21-1.6-4.23-1.067-1.013-2.683-1.52-4.85-1.52v0zM180.05 3.8h6.1v34.75h-5.7v-23.8l-10.6 23.8h-3.95l-10.65-23.8v23.8h-5.7v-34.75h6.15l12.2 27.25zM217.1 38.55l-2.5-7.1h-14.55l-2.5 7.1h-5.95l12.45-34.8h6.6l12.45 34.8zM201.65 26.8h11.35l-5.65-16.15zM226.7 3.8h24.25v4.65h-9.25v30.1h-5.7v-30.1h-9.3zM256.7 3.8h5.7v34.75h-5.7zM268 21.1c0-3.4 0.793-6.45 2.38-9.15 1.58-2.7 3.727-4.81 6.44-6.33 2.72-1.513 5.697-2.27 8.93-2.27v0c3.7 0 6.993 0.907 9.88 2.72 2.88 1.82 4.97 4.397 6.27 7.73v0h-6.85c-0.9-1.833-2.15-3.2-3.75-4.1-1.6-0.9-3.45-1.35-5.55-1.35v0c-2.3 0-4.35 0.517-6.15 1.55-1.8 1.033-3.207 2.517-4.22 4.45-1.02 1.933-1.53 4.183-1.53 6.75v0c0 2.567 0.51 4.817 1.53 6.75 1.013 1.933 2.42 3.423 4.22 4.47 1.8 1.053 3.85 1.58 6.15 1.58v0c2.1 0 3.95-0.45 5.55-1.35 1.6-0.9 2.85-2.267 3.75-4.1v0h6.85c-1.3 3.333-3.39 5.9-6.27 7.7-2.887 1.8-6.18 2.7-9.88 2.7v0c-3.267 0-6.25-0.76-8.95-2.28-2.7-1.513-4.84-3.62-6.42-6.32-1.587-2.7-2.38-5.75-2.38-9.15zM332 38.55l-2.5-7.1h-14.55l-2.5 7.1h-5.95l12.45-34.8h6.6l12.45 34.8zM316.55 26.8h11.35l-5.65-16.15z" fill="#000000" fill-rule="nonzero" stroke="none" stroke-width="1" stroke-linecap="butt" stroke-linejoin="miter" stroke-miterlimit="10" stroke-dasharray="" stroke-dashoffset="0" font-family="none" font-weight="none" font-size="none" text-anchor="none" style="mix-blend-mode: normal" data-fill-palette-color="primary" opacity="1"></path></g></svg></g></svg></g></svg></g></svg></g></svg></g></svg></g></svg></g><defs></defs></svg><rect width="395.52" height="247.2" fill="none" stroke="none" visibility="hidden"></rect></g></svg></g></svg>